<svg xmlns="http://www.w3.org/2000/svg" viewBox="0 0 64 64">
  <defs>
    <linearGradient id="f1" x1="0" y1="1" x2="0" y2="0"><stop offset="0" stop-color="#F23B0A"/><stop offset=".6" stop-color="#FF7A12"/><stop offset="1" stop-color="#FFA21F"/></linearGradient>
    <linearGradient id="f2" x1="0" y1="1" x2="0" y2="0"><stop offset="0" stop-color="#FFB11A"/><stop offset="1" stop-color="#FFD84A"/></linearGradient>
  </defs>
  <path d="M33 3c1 10 15 16 18 31 3 14-6 26-19 26S11 50 13 37c1-7 5-12 9-16 0 6 2 9 5 10-2-10 1-20 6-28z" fill="url(#f1)"/>
  <path d="M32.500 25c1 7 10 11 11 20 .9 7-4.500 12-11 12s-10.500-5-9.500-11c1-6.500 7.500-10 9.500-21z" fill="url(#f2)"/>
  <path d="M32 40c1 4 5 6 4.500 10-.4 3.200-2.500 4.500-4.500 4.500s-4.200-1.500-4.200-4.600c0-4 3.500-6 4.200-9.900z" fill="#FFF3B0"/>
</svg>
